<?xml version="1.0" encoding="UTF-8" standalone="no"?>
<!DOCTYPE svg PUBLIC "-//W3C//DTD SVG 1.1//EN" "http://www.w3.org/Graphics/SVG/1.1/DTD/svg11.dtd">
<svg width="100%" height="100%" viewBox="0 0 4500 1414" version="1.1" xmlns="http://www.w3.org/2000/svg" xmlns:xlink="http://www.w3.org/1999/xlink" xml:space="preserve" xmlns:serif="http://www.serif.com/" style="fill-rule:evenodd;clip-rule:evenodd;stroke-linejoin:round;stroke-miterlimit:2;">
    <g id="Layer-1" serif:id="Layer 1" transform="matrix(4.16667,0,0,4.16667,0,0)">
        <g transform="matrix(1,0,0,1,394.112,306.227)">
            <path d="M0,-30.789L2.287,-30.789L2.287,-2.111L20.364,-2.111L20.364,0L0,0L0,-30.789Z" style="fill:rgb(147,149,152);fill-rule:nonzero;"/>
        </g>
        <g transform="matrix(1,0,0,1,0,241.938)">
            <path d="M419.436,41.858L421.591,41.858L421.591,64.288L419.436,64.288L419.436,41.858ZM419.173,33.06L421.856,33.06L421.856,36.009L419.173,36.009L419.173,33.06Z" style="fill:rgb(147,149,152);fill-rule:nonzero;"/>
        </g>
        <g transform="matrix(1,0,0,1,426.074,306.402)">
            <path d="M0,-22.606L2.507,-22.606L10.997,-2.595L19.574,-22.606L21.992,-22.606L11.92,0L10.072,0L0,-22.606Z" style="fill:rgb(147,149,152);fill-rule:nonzero;"/>
        </g>
        <g transform="matrix(1,0,0,1,469.302,296.066)">
            <path d="M0,-2.11C-0.309,-6.64 -2.904,-10.819 -8.049,-10.819C-12.492,-10.819 -15.922,-7.08 -16.319,-2.11L0,-2.11ZM-18.606,-1.01L-18.606,-1.099C-18.606,-7.609 -14.031,-12.799 -7.962,-12.799C-1.672,-12.799 2.33,-7.698 2.33,-1.055C2.33,-0.659 2.33,-0.529 2.286,-0.175L-16.319,-0.175C-15.922,5.41 -11.92,8.665 -7.522,8.665C-4.047,8.665 -1.672,7.126 0.175,5.146L1.671,6.466C-0.617,8.93 -3.299,10.689 -7.609,10.689C-13.504,10.689 -18.606,5.981 -18.606,-1.01" style="fill:rgb(147,149,152);fill-rule:nonzero;"/>
        </g>
        <g transform="matrix(1,0,0,1,483.101,306.361)">
            <path d="M0,-30.923L2.55,-30.923L12.227,-3.52L21.244,-31.009L23.004,-31.009L32.019,-3.52L41.695,-30.923L44.07,-30.923L32.899,0.086L31.05,0.086L22.035,-26.657L13.018,0.086L11.171,0.086L0,-30.923Z" style="fill:rgb(147,149,152);fill-rule:nonzero;"/>
        </g>
        <g transform="matrix(1,0,0,1,548.794,296.066)">
            <path d="M0,-2.11C-0.306,-6.64 -2.901,-10.819 -8.049,-10.819C-12.49,-10.819 -15.921,-7.08 -16.316,-2.11L0,-2.11ZM-18.605,-1.01L-18.605,-1.099C-18.605,-7.609 -14.03,-12.799 -7.96,-12.799C-1.671,-12.799 2.333,-7.698 2.333,-1.055C2.333,-0.659 2.333,-0.529 2.289,-0.175L-16.316,-0.175C-15.921,5.41 -11.92,8.665 -7.52,8.665C-4.046,8.665 -1.671,7.126 0.175,5.146L1.673,6.466C-0.615,8.93 -3.297,10.689 -7.609,10.689C-13.501,10.689 -18.605,5.981 -18.605,-1.01" style="fill:rgb(147,149,152);fill-rule:nonzero;"/>
        </g>
        <g transform="matrix(1,0,0,1,0,241.058)">
            <rect x="556.002" y="33.06" width="2.155" height="32.108" style="fill:rgb(147,149,152);"/>
        </g>
        <g transform="matrix(1,0,0,1,0,241.058)">
            <rect x="565.235" y="33.06" width="2.155" height="32.108" style="fill:rgb(147,149,152);"/>
        </g>
        <g transform="matrix(1,0,0,1,0,269.427)">
            <rect x="573.674" y="33.06" width="2.904" height="3.739" style="fill:rgb(147,149,152);"/>
        </g>
        <g transform="matrix(1,0,0,1,591.833,306.227)">
            <path d="M0,-30.789L2.286,-30.789L2.286,-2.111L20.364,-2.111L20.364,0L0,0L0,-30.789Z" style="fill:rgb(147,149,152);fill-rule:nonzero;"/>
        </g>
        <g transform="matrix(1,0,0,1,0,241.938)">
            <path d="M617.159,41.858L619.314,41.858L619.314,64.288L617.159,64.288L617.159,41.858ZM616.895,33.06L619.579,33.06L619.579,36.009L616.895,36.009L616.895,33.06Z" style="fill:rgb(147,149,152);fill-rule:nonzero;"/>
        </g>
        <g transform="matrix(1,0,0,1,623.797,306.402)">
            <path d="M0,-22.606L2.506,-22.606L10.995,-2.595L19.571,-22.606L21.99,-22.606L11.92,0L10.071,0L0,-22.606Z" style="fill:rgb(147,149,152);fill-rule:nonzero;"/>
        </g>
        <g transform="matrix(1,0,0,1,667.023,296.066)">
            <path d="M0,-2.11C-0.306,-6.64 -2.901,-10.819 -8.049,-10.819C-12.49,-10.819 -15.921,-7.08 -16.316,-2.11L0,-2.11ZM-18.605,-1.01L-18.605,-1.099C-18.605,-7.609 -14.03,-12.799 -7.96,-12.799C-1.671,-12.799 2.333,-7.698 2.333,-1.055C2.333,-0.659 2.333,-0.529 2.289,-0.175L-16.316,-0.175C-15.921,5.41 -11.92,8.665 -7.52,8.665C-4.046,8.665 -1.671,7.126 0.175,5.146L1.673,6.466C-0.615,8.93 -3.297,10.689 -7.609,10.689C-13.501,10.689 -18.605,5.981 -18.605,-1.01" style="fill:rgb(147,149,152);fill-rule:nonzero;"/>
        </g>
        <g transform="matrix(1,0,0,1,681.22,279.923)">
            <path d="M0,21.818L1.495,20.103C4.881,23.224 8.005,24.677 12.535,24.677C17.154,24.677 20.32,22.08 20.32,18.563L20.32,18.474C20.32,15.219 18.605,13.329 11.61,11.92C4.224,10.425 1.231,7.919 1.231,3.255L1.231,3.169C1.231,-1.406 5.41,-4.925 11.129,-4.925C15.614,-4.925 18.56,-3.692 21.684,-1.186L20.233,0.618C17.329,-1.89 14.425,-2.856 11.04,-2.856C6.51,-2.856 3.519,-0.261 3.519,2.949L3.519,3.035C3.519,6.29 5.19,8.27 12.49,9.765C19.615,11.218 22.608,13.769 22.608,18.254L22.608,18.343C22.608,23.313 18.34,26.743 12.404,26.743C7.476,26.743 3.695,25.115 0,21.818" style="fill:rgb(147,149,152);fill-rule:nonzero;"/>
        </g>
        <g transform="matrix(1,0,0,1,710.327,282.783)">
            <path d="M0,17.683L0,2.99L-3.255,2.99L-3.255,1.013L0,1.013L0,-6.156L2.155,-6.156L2.155,1.013L10.026,1.013L10.026,2.99L2.155,2.99L2.155,17.463C2.155,20.673 4.046,21.818 6.641,21.818C7.74,21.818 8.665,21.598 9.94,21.024L9.94,23.048C8.796,23.575 7.696,23.839 6.29,23.839C2.815,23.839 0,21.949 0,17.683" style="fill:rgb(147,149,152);fill-rule:nonzero;"/>
        </g>
        <g transform="matrix(1,0,0,1,725.011,305.697)">
            <path d="M0,-21.901L2.155,-21.901L2.155,-15.525C3.915,-19.526 7.654,-22.43 12.095,-22.255L12.095,-19.88L11.875,-19.88C6.685,-19.88 2.155,-15.965 2.155,-8.664L2.155,0.529L0,0.529L0,-21.901Z" style="fill:rgb(147,149,152);fill-rule:nonzero;"/>
        </g>
        <g transform="matrix(1,0,0,1,760.063,294.926)">
            <path d="M0,0.172L0,0.086C0,-5.324 -4.048,-9.634 -9.238,-9.634C-14.559,-9.634 -18.387,-5.28 -18.387,-0.003L-18.387,0.086C-18.387,5.496 -14.339,9.806 -9.149,9.806C-3.828,9.806 0,5.451 0,0.172M-20.718,0.172L-20.718,0.086C-20.718,-6.204 -15.834,-11.658 -9.149,-11.658C-2.509,-11.658 2.33,-6.293 2.33,-0.003L2.33,0.086C2.33,6.375 -2.553,11.83 -9.238,11.83C-15.879,11.83 -20.718,6.462 -20.718,0.172" style="fill:rgb(147,149,152);fill-rule:nonzero;"/>
        </g>
        <g transform="matrix(1,0,0,1,767.308,305.697)">
            <path d="M0,-21.901L2.155,-21.901L2.155,-17.725C3.65,-20.364 6.159,-22.43 10.249,-22.43C15.923,-22.43 19.22,-18.56 19.22,-13.195L19.22,0.529L17.065,0.529L17.065,-12.796C17.065,-17.415 14.47,-20.45 9.94,-20.45C5.544,-20.45 2.155,-17.109 2.155,-12.446L2.155,0.529L0,0.529L0,-21.901Z" style="fill:rgb(147,149,152);fill-rule:nonzero;"/>
        </g>
        <g transform="matrix(1,0,0,1,811.372,302.662)">
            <path d="M0,-8.706L0,-8.795C0,-13.985 -4.616,-17.329 -9.28,-17.329C-13.986,-17.329 -17.945,-14.074 -17.945,-8.84L-17.945,-8.751C-17.945,-3.691 -13.899,-0.175 -9.28,-0.175C-4.616,-0.175 0,-3.605 0,-8.706M-19.265,7.259L-17.989,5.499C-15.305,7.568 -12.226,8.665 -8.929,8.665C-3.781,8.665 -0.131,5.719 -0.131,-0.041L-0.131,-3.296C-2.066,-0.526 -5.056,1.894 -9.5,1.894C-14.91,1.894 -20.275,-2.241 -20.275,-8.664L-20.275,-8.751C-20.275,-15.216 -14.91,-19.395 -9.5,-19.395C-5.015,-19.395 -1.98,-17.02 -0.131,-14.38L-0.131,-18.866L2.024,-18.866L2.024,0.09C2.024,3.344 0.969,5.895 -0.835,7.699C-2.77,9.634 -5.674,10.689 -8.971,10.689C-12.71,10.689 -16.185,9.545 -19.265,7.259" style="fill:rgb(147,149,152);fill-rule:nonzero;"/>
        </g>
        <g transform="matrix(1,0,0,1,1035.06,108.613)">
            <path d="M0,-40.197L-20.831,6.915L-22.289,6.915L-44.751,-40.197L-37.415,-40.197L-19.906,-4.126L-3.964,-40.197L0,-40.197ZM-77.347,-40.189L-61.009,-16.313L-44.746,-40.189L-40.458,-40.189L-58.712,-13.439L-58.712,6.919L-66.629,6.919L-66.629,-12.699L-85.462,-40.189L-77.347,-40.189ZM5.629,-66.647C5.629,-66.647 6.746,-65.437 8.833,-63.174C9.928,-62.09 11.098,-60.563 12.44,-58.738C13.095,-57.815 13.894,-56.892 14.641,-55.824C15.338,-54.737 16.079,-53.578 16.863,-52.352C19.826,-47.368 23.261,-41.029 25.407,-33.021C27.591,-25.081 28.81,-15.484 27.195,-5.163C25.633,5.126 21.028,15.941 13.47,25.264C12.569,26.45 11.442,27.472 10.422,28.594C9.3,29.7 8.5,30.771 7.105,31.919C4.835,33.771 2.768,35.69 -0.039,37.458C-5.282,41.208 -11.052,43.714 -17.101,45.863C-23.172,47.951 -29.617,48.875 -36.08,49.435C-42.585,49.76 -49.149,49.315 -55.649,48.109C-62.137,46.797 -68.46,44.575 -74.52,41.658C-80.563,38.69 -86.151,34.75 -91.265,30.226C-93.74,27.631 -96.016,25.715 -98.205,22.784C-100.535,20.109 -102.344,17.194 -104.217,14.293C-107.603,8.298 -110.244,1.849 -111.752,-4.865C-113.158,-11.582 -113.695,-18.447 -113.245,-25.202C-112.632,-31.924 -111.376,-38.563 -109.031,-44.757C-106.697,-50.919 -103.675,-56.777 -99.757,-61.806C-97.969,-64.454 -95.742,-66.696 -93.67,-69.017L-93.279,-69.438L-93.074,-69.653L-92.972,-69.757L-92.693,-70.02L-91.883,-70.737L-90.267,-72.159C-89.14,-73.099 -88.222,-74.046 -86.95,-74.969C-77.016,-82.636 -66.346,-86.911 -55.933,-88.454C-45.553,-89.957 -35.961,-88.709 -28.018,-86.538C-19.994,-84.383 -13.65,-80.948 -8.669,-77.969C-7.446,-77.183 -6.286,-76.434 -5.191,-75.731C-4.128,-74.996 -3.216,-74.188 -2.298,-73.533C-0.479,-72.192 1.035,-71.022 2.13,-69.905C4.4,-67.79 5.613,-66.663 5.613,-66.663L5.629,-66.647ZM4.963,-66.014C4.963,-66.014 3.74,-67.092 1.437,-69.113C0.332,-70.176 -1.198,-71.279 -3.018,-72.548C-3.924,-73.187 -4.88,-73.906 -5.969,-74.545C-7.086,-75.144 -8.267,-75.788 -9.523,-76.464C-14.547,-79.056 -21.078,-81.589 -28.845,-82.521C-36.563,-83.565 -45.408,-83.224 -54.43,-80.886C-58.896,-79.564 -63.511,-78.127 -67.929,-75.836C-72.438,-73.775 -76.758,-70.812 -80.665,-67.779C-81.674,-67.036 -82.737,-65.912 -83.778,-64.98L-85.356,-63.515L-86.151,-62.778L-86.065,-62.855L-86.151,-62.756L-86.312,-62.563L-86.644,-62.184C-88.405,-60.155 -90.385,-58.261 -91.915,-55.958C-95.339,-51.632 -97.883,-46.576 -100.18,-41.344C-102.408,-36.051 -103.685,-30.309 -104.453,-24.431C-105.075,-18.519 -104.753,-12.473 -103.819,-6.459C-102.73,-0.469 -100.771,5.405 -98.168,11.057C-96.718,13.805 -95.328,16.639 -93.541,19.108C-92.07,21.663 -89.559,24.319 -87.718,26.681C-83.317,31.238 -78.416,35.381 -72.91,38.647C-67.306,41.717 -61.322,44.087 -55.096,45.372C-48.87,46.51 -42.526,46.918 -36.364,46.169C-30.219,45.356 -24.288,43.735 -18.878,41.261C-13.527,38.773 -8.374,35.716 -4.268,32.113C-2.132,30.572 -0.06,28.286 2.022,26.302C3.713,24.51 5.591,22.291 7.196,20.256C13.643,11.781 17.721,2.461 20.061,-6.574C22.273,-15.656 22.584,-24.488 21.559,-32.219C20.609,-39.991 18.086,-46.536 15.467,-51.555C14.791,-52.808 14.142,-53.994 13.54,-55.11C12.902,-56.205 12.182,-57.145 11.538,-58.046C10.277,-59.855 9.166,-61.377 8.087,-62.493C6.037,-64.801 4.947,-66.033 4.947,-66.033L4.963,-66.014Z" style="fill:rgb(23,127,127);fill-rule:nonzero;"/>
        </g>
        <g transform="matrix(1,0,0,1,599.111,170.408)">
            <path d="M0,53.177C-2.404,57.299 -11.973,69.229 -24.107,66.753L-24.108,66.754C-36.27,64.139 -41.506,50.095 -41.495,40.306L-41.495,-16.906L-55.604,-16.906L-55.604,-20.513L-41.488,-24.377L-41.488,-45.801L-28.956,-50.91L-23.788,-50.91L-23.788,-24.377L-8,-24.377L-8,-16.906L-23.788,-16.906L-23.788,37.201C-23.813,43.726 -23.584,49.964 -20.567,52.833C-18.695,54.614 -15.81,55.648 -12.624,55.582C-10.22,55.531 -8.185,55.182 -6.526,54.379C-4.868,53.58 -3.548,52.605 -2.576,51.459L0,53.177ZM313.002,-24.305L268.862,77.114C260.917,95.441 254.623,104.152 236.688,102.473C233.678,102.191 229.707,100.645 227.85,99.458L232.781,88.557C234.042,89.185 239.751,92.803 244.478,92.797C248.869,92.792 253.743,90.313 259.03,77.88C259.861,75.925 267.016,59.465 267.016,59.465L221.976,-24.305L240.351,-24.305L275.217,40.617L303.47,-24.305L313.002,-24.305ZM-94.165,-50.906L-145.518,65.237L-149.113,65.237L-204.489,-50.906L-186.404,-50.906L-143.239,38.017L-103.937,-50.906L-94.165,-50.906ZM223.05,53.177C220.646,57.299 211.077,69.229 198.944,66.753L198.943,66.754C186.78,64.139 181.544,50.095 181.555,40.306L181.555,-16.906L167.446,-16.906L167.446,-20.513L181.562,-24.377L181.562,-45.801L194.094,-50.91L199.263,-50.91L199.263,-24.377L215.05,-24.377L215.05,-16.906L199.263,-16.906L199.263,37.201C199.237,43.726 199.466,49.964 202.483,52.833C204.355,54.614 207.24,55.648 210.426,55.582C212.83,55.531 214.865,55.182 216.524,54.379C218.182,53.58 219.502,52.605 220.474,51.459L223.05,53.177ZM59.399,13.985C54.993,15.187 50.495,16.69 45.917,18.493C41.338,20.297 37.2,22.315 33.508,24.547C29.815,26.78 26.793,29.244 24.448,31.933C22.102,34.624 20.927,37.488 20.927,40.52C20.927,42.697 21.372,44.744 22.258,46.66C23.144,48.579 24.335,50.267 25.822,51.727C27.309,53.187 29.015,54.333 30.931,55.162C32.848,55.994 34.839,56.407 36.9,56.407C39.133,56.407 41.21,56.093 43.126,55.463C45.042,54.835 46.888,54.019 48.665,53.015C50.441,52.014 52.202,50.868 53.946,49.58C55.69,48.292 57.51,46.961 59.399,45.587L59.399,13.985ZM77.218,53.144C77.218,55.779 78.201,58.154 79.805,60.272C81.41,62.392 83.412,64.023 85.817,65.167L66.613,65.167C64.611,64.195 62.904,62.663 61.503,60.572C60.102,58.484 59.399,56.007 59.399,53.144C57.682,54.346 55.776,55.75 53.688,57.352C51.601,58.957 49.266,60.473 46.69,61.903C44.113,63.336 41.253,64.552 38.102,65.553C34.951,66.554 31.463,67.056 27.625,67.056C24.421,67.056 21.544,66.498 18.995,65.381C16.445,64.265 14.288,62.735 12.511,60.787C10.735,58.841 9.361,56.523 8.389,53.831C7.418,51.142 6.929,48.249 6.929,45.158C6.929,41.323 7.659,37.858 9.119,34.767C10.579,31.675 12.581,28.884 15.13,26.394C17.68,23.903 20.653,21.7 24.061,19.781C27.47,17.865 31.119,16.148 35.01,14.629C38.902,13.113 42.938,11.781 47.119,10.636C51.3,9.492 55.39,8.432 59.399,7.458L59.399,2.907C59.399,-1.1 59.083,-4.479 58.455,-7.227C57.827,-9.975 56.839,-12.191 55.492,-13.882C54.145,-15.57 52.443,-16.772 50.382,-17.489C48.321,-18.203 45.831,-18.562 42.911,-18.562C40.222,-18.562 37.732,-18.074 35.44,-17.102C33.148,-16.128 31.146,-14.827 29.429,-13.195C27.711,-11.563 26.31,-9.644 25.221,-7.441C24.131,-5.235 23.417,-2.903 23.074,-0.442L10.536,-0.442C10.992,-4.221 12.253,-7.597 14.314,-10.576C16.375,-13.552 18.968,-16.056 22.086,-18.09C25.205,-20.121 28.725,-21.68 32.649,-22.77C36.572,-23.857 40.651,-24.402 44.886,-24.402C50.323,-24.402 58.793,-23.843 62.458,-22.727C66.124,-21.611 69.055,-20.049 71.261,-18.047C73.467,-16.042 75.039,-13.595 75.984,-10.705C76.929,-7.812 77.218,-4.621 77.218,-1.129L77.218,53.144ZM97.826,-50.91L115.586,-50.91L115.586,65.169L97.826,65.169L97.826,-50.91ZM144.787,-50.908C146.177,-50.908 147.497,-50.677 148.753,-50.213C149.999,-49.751 151.083,-49.125 152.001,-48.333C152.919,-47.546 153.654,-46.62 154.206,-45.552C154.765,-44.492 155.044,-43.361 155.044,-42.164C155.044,-40.961 154.765,-39.836 154.206,-38.77C153.654,-37.707 152.919,-36.782 152.001,-35.995C151.083,-35.203 149.999,-34.572 148.753,-34.114C147.497,-33.646 146.177,-33.419 144.787,-33.419C143.397,-33.419 142.088,-33.646 140.869,-34.114C139.645,-34.572 138.577,-35.203 137.66,-35.995C136.742,-36.782 136.006,-37.707 135.448,-38.77C134.896,-39.836 134.616,-40.961 134.616,-42.164C134.616,-43.361 134.896,-44.492 135.448,-45.552C136.006,-46.62 136.742,-47.546 137.66,-48.333C138.577,-49.125 139.645,-49.751 140.869,-50.213C142.088,-50.677 143.397,-50.908 144.787,-50.908M136.073,-19.427L148.641,-24.409L153.834,-24.409L153.834,65.169L136.073,65.169L136.073,-19.427ZM-558.957,-50.975L-518.683,7.888L-478.577,-50.975L-467.987,-50.975L-513.016,14.977L-513.016,65.167L-532.523,65.167L-532.523,16.808L-578.968,-50.975L-558.957,-50.975ZM-77.869,-50.908C-76.479,-50.908 -75.159,-50.677 -73.903,-50.213C-72.658,-49.751 -71.573,-49.125 -70.656,-48.333C-69.738,-47.546 -69.003,-46.62 -68.45,-45.552C-67.892,-44.492 -67.612,-43.361 -67.612,-42.164C-67.612,-40.961 -67.892,-39.836 -68.45,-38.77C-69.003,-37.707 -69.738,-36.782 -70.656,-35.995C-71.573,-35.203 -72.658,-34.572 -73.903,-34.114C-75.159,-33.646 -76.479,-33.419 -77.869,-33.419C-79.26,-33.419 -80.569,-33.646 -81.787,-34.114C-83.011,-34.572 -84.079,-35.203 -84.997,-35.995C-85.915,-36.782 -86.65,-37.707 -87.209,-38.77C-87.761,-39.836 -88.04,-40.961 -88.04,-42.164C-88.04,-43.361 -87.761,-44.492 -87.209,-45.552C-86.65,-46.62 -85.915,-47.546 -84.997,-48.333C-84.079,-49.125 -83.011,-49.751 -81.787,-50.213C-80.569,-50.677 -79.26,-50.908 -77.869,-50.908M-86.583,-19.427L-74.015,-24.409L-68.823,-24.409L-68.823,65.169L-86.583,65.169L-86.583,-19.427ZM-284.995,-24.377L-267.32,-24.377L-267.32,-7.449C-265.597,-9.956 -263.735,-12.342 -261.728,-14.623C-259.736,-16.903 -257.654,-18.903 -255.48,-20.631C-253.312,-22.351 -251.079,-23.712 -248.771,-24.713C-246.464,-25.714 -244.118,-26.213 -241.724,-26.213C-239.781,-26.213 -237.972,-25.924 -236.303,-25.335C-234.634,-24.753 -233.18,-23.977 -231.924,-23.003C-230.678,-22.032 -229.691,-20.889 -228.966,-19.584C-228.241,-18.277 -227.882,-16.903 -227.882,-15.457C-227.882,-12.567 -228.789,-10.385 -230.587,-8.912C-232.396,-7.439 -234.913,-6.703 -238.133,-6.703C-240.135,-6.703 -241.735,-6.913 -242.932,-7.328C-244.129,-7.747 -245.208,-8.22 -246.184,-8.743C-247.161,-9.274 -248.143,-9.746 -249.142,-10.165C-250.145,-10.579 -251.391,-10.787 -252.893,-10.787C-254.063,-10.787 -255.244,-10.442 -256.436,-9.746C-257.638,-9.048 -258.835,-8.077 -260.026,-6.829C-261.218,-5.576 -262.426,-4.103 -263.649,-2.409C-264.873,-0.713 -266.102,1.136 -267.32,3.135L-267.32,65.169L-284.995,65.169L-284.995,-24.377ZM-361.043,-24.377L-361.043,39.32C-361.043,41.545 -360.533,43.647 -359.497,45.619C-358.472,47.586 -357.066,49.301 -355.289,50.747C-353.507,52.191 -351.425,53.34 -349.037,54.204C-346.648,55.068 -344.088,55.495 -341.366,55.495C-339.585,55.495 -337.696,55.122 -335.693,54.376C-333.692,53.622 -331.738,52.583 -329.816,51.247C-327.901,49.913 -326.091,48.367 -324.396,46.62C-322.7,44.865 -321.299,42.992 -320.187,40.992L-320.187,-24.377L-302.428,-24.377L-302.428,65.169L-320.187,65.169L-320.187,48.405C-321.744,50.968 -323.703,53.385 -326.065,55.667C-328.427,57.948 -330.987,59.931 -333.735,61.624C-336.488,63.323 -339.322,64.657 -342.241,65.626C-345.156,66.597 -347.92,67.088 -350.534,67.088C-354.43,67.088 -358.096,66.35 -361.542,64.877C-364.988,63.404 -367.988,61.415 -370.548,58.914C-373.103,56.413 -375.116,53.485 -376.592,50.12C-378.068,46.757 -378.803,43.158 -378.803,39.32L-378.803,-24.377L-361.043,-24.377ZM-439.243,67.088C-446.079,67.088 -452.404,65.894 -458.208,63.503C-464.019,61.112 -469.021,57.865 -473.218,53.748C-477.418,49.631 -480.694,44.812 -483.056,39.283C-485.42,33.747 -486.601,27.846 -486.601,21.563C-486.601,14.946 -485.42,8.736 -483.056,2.926C-480.694,-2.876 -477.418,-7.94 -473.218,-12.248C-469.021,-16.557 -464.019,-19.96 -458.208,-22.462C-452.404,-24.965 -446.079,-26.213 -439.243,-26.213C-432.406,-26.213 -426.113,-25.07 -420.353,-22.794C-414.602,-20.521 -409.613,-17.387 -405.392,-13.412C-401.165,-9.44 -397.873,-4.774 -395.506,0.591C-393.147,5.961 -391.966,11.693 -391.966,17.809C-391.966,24.591 -393.147,30.972 -395.506,36.946C-397.873,42.919 -401.165,48.147 -405.392,52.621C-409.613,57.094 -414.602,60.623 -420.353,63.207C-426.113,65.794 -432.406,67.088 -439.243,67.088M-435.905,60.497C-432.406,60.497 -429.196,59.595 -426.276,57.792C-423.359,55.986 -420.826,53.565 -418.687,50.538C-416.548,47.506 -414.895,43.966 -413.731,39.903C-412.565,35.848 -411.975,31.571 -411.975,27.065C-411.975,20.563 -412.531,14.489 -413.641,8.846C-414.758,3.207 -416.567,-1.728 -419.066,-5.954C-421.566,-10.176 -424.816,-13.501 -428.815,-15.914C-432.822,-18.331 -437.741,-19.542 -443.577,-19.542C-446.58,-19.542 -449.471,-18.678 -452.246,-16.957C-455.026,-15.237 -457.489,-12.875 -459.628,-9.875C-461.764,-6.867 -463.479,-3.373 -464.754,0.634C-466.036,4.635 -466.673,8.888 -466.673,13.392C-466.673,19.891 -465.98,26.01 -464.585,31.732C-463.2,37.458 -461.198,42.447 -458.587,46.701C-455.973,50.952 -452.752,54.314 -448.915,56.789C-445.08,59.265 -440.744,60.497 -435.905,60.497" style="fill:rgb(88,175,159);fill-rule:nonzero;"/>
        </g>
    </g>
</svg>
